<svg width="61" height="61" viewBox="0 0 61 61" fill="none" xmlns="http://www.w3.org/2000/svg">
<path d="M32.2046 42.1827C31.8493 42.5712 31.3473 42.7925 30.8208 42.7925C30.2943 42.7925 29.7923 42.5712 29.4371 42.1827L19.437 31.2452C18.7383 30.481 18.7914 29.295 19.5556 28.5962C20.3199 27.8975 21.5059 27.9505 22.2046 28.7147L28.9458 36.088V8.41748C28.9458 7.38196 29.7853 6.54248 30.8208 6.54248C31.8563 6.54248 32.6958 7.38196 32.6958 8.41748V36.088L39.4371 28.7147C40.1358 27.9505 41.3218 27.8975 42.0861 28.5962C42.8503 29.295 42.9033 30.481 42.2046 31.2452L32.2046 42.1827Z" fill="white"/>
<path d="M10.1958 38.4175C10.1958 37.382 9.35635 36.5425 8.3208 36.5425C7.28528 36.5425 6.4458 37.382 6.4458 38.4175V38.5547C6.44575 41.9737 6.4457 44.7295 6.7371 46.897C7.03965 49.1472 7.68688 51.0417 9.19168 52.5465C10.6965 54.0515 12.5912 54.6987 14.8414 55.0012C17.0089 55.2925 19.7647 55.2925 23.1836 55.2925H38.4581C41.8771 55.2925 44.6328 55.2925 46.8003 55.0012C49.0506 54.6987 50.945 54.0515 52.45 52.5465C53.9548 51.0417 54.602 49.1472 54.9045 46.897C55.1958 44.7295 55.1958 41.9737 55.1958 38.5547V38.4175C55.1958 37.382 54.3563 36.5425 53.3208 36.5425C52.2853 36.5425 51.4458 37.382 51.4458 38.4175C51.4458 42.006 51.4418 44.5087 51.1881 46.3972C50.9413 48.2317 50.4903 49.203 49.7983 49.895C49.1063 50.587 48.1351 51.038 46.3006 51.2847C44.4121 51.5385 41.9093 51.5425 38.3208 51.5425H23.3208C19.7323 51.5425 17.2295 51.5385 15.3411 51.2847C13.5067 51.038 12.5352 50.587 11.8433 49.895C11.1514 49.203 10.7003 48.2317 10.4537 46.3972C10.1998 44.5087 10.1958 42.006 10.1958 38.4175Z" fill="white"/>
</svg>
