<svg width="61" height="61" viewBox="0 0 61 61" fill="none" xmlns="http://www.w3.org/2000/svg">
<path fill-rule="evenodd" clip-rule="evenodd" d="M17.0983 4.98843C18.4898 4.29273 20.1499 3.47461 23.2163 3.47461C26.2826 3.47461 27.9428 4.29266 29.3343 4.98836L29.3741 5.00828C30.4631 5.55288 31.3061 5.97438 33.2163 5.97443C36.3091 5.97456 38.1408 4.82138 38.7516 4.36241C39.7023 3.64791 40.8256 3.70816 41.6011 4.06686C42.3866 4.43018 43.2163 5.29708 43.2163 6.57831V33.4746H50.7163C54.8568 33.4746 58.2163 36.8284 58.2163 40.9721V48.4746C58.2163 50.7871 57.6311 52.6876 56.6246 54.1974C55.6286 55.6914 54.3183 56.6561 53.0843 57.2731C51.8601 57.8854 50.6661 58.1789 49.7991 58.3234C49.2786 58.4101 48.7453 58.4756 48.2163 58.4746H13.2163C10.9039 58.4746 9.00331 57.8894 7.49361 56.8829C5.99958 55.8869 5.03478 54.5766 4.41773 53.3426C3.80561 52.1184 3.51198 50.9244 3.36751 50.0576C3.29428 49.6181 3.25671 49.2466 3.23731 48.9751C3.22116 48.7489 3.21638 48.6149 3.21631 48.4746V6.57826C3.21631 5.29708 4.04591 4.43018 4.83146 4.06686C5.60701 3.70813 6.73033 3.64788 7.68103 4.36233C8.29178 4.82131 10.1235 5.97443 13.2163 5.97443C15.1267 5.97443 15.9695 5.55296 17.0585 5.00836L17.0983 4.98843ZM8.22461 48.4746L8.21631 10.1839C9.56676 10.639 11.2346 10.9744 13.2163 10.9744C16.2827 10.9744 17.9428 10.1563 19.3343 9.46063L19.3741 9.44071C20.4631 8.89611 21.3059 8.47461 23.2163 8.47461C25.1267 8.47461 25.9696 8.89608 27.0586 9.44068L27.0983 9.46058C28.4898 10.1563 30.1498 10.9744 33.2163 10.9744C35.1981 10.9745 36.8658 10.6391 38.2163 10.1839V48.4746C38.2163 50.4321 38.6358 52.0946 39.3751 53.4746H13.2163C11.7788 53.4746 10.8668 53.1224 10.2671 52.7226C9.65178 52.3124 9.21033 51.7476 8.88988 51.1066C8.56451 50.4559 8.38938 49.7749 8.29948 49.2356C8.25723 48.9819 8.23161 48.7306 8.22461 48.4746ZM48.9773 53.3914C49.5166 53.3016 50.1976 53.1264 50.8483 52.8011C51.4893 52.4806 52.0541 52.0391 52.4643 51.4239C52.8641 50.8241 53.2163 49.9121 53.2163 48.4746V40.9721C53.2163 39.5931 52.0986 38.4746 50.7163 38.4746H43.2163V48.4746C43.2163 49.9121 43.5686 50.8241 43.9683 51.4239C44.3786 52.0391 44.9433 52.4806 45.5843 52.8011C46.2351 53.1264 46.9161 53.3016 47.4556 53.3914C47.7193 53.4354 47.9336 53.4564 48.0721 53.4664C48.3736 53.4879 48.6806 53.4409 48.9773 53.3914Z" fill="white"/>
<path d="M13.2163 20.9746C13.2163 19.5939 14.3356 18.4746 15.7163 18.4746H30.7163C32.0971 18.4746 33.2163 19.5939 33.2163 20.9746C33.2163 22.3553 32.0971 23.4746 30.7163 23.4746H15.7163C14.3356 23.4746 13.2163 22.3553 13.2163 20.9746Z" fill="white"/>
<path d="M13.2163 30.9746C13.2163 29.5939 14.3356 28.4746 15.7163 28.4746H30.7163C32.0971 28.4746 33.2163 29.5939 33.2163 30.9746C33.2163 32.3554 32.0971 33.4746 30.7163 33.4746H15.7163C14.3356 33.4746 13.2163 32.3554 13.2163 30.9746Z" fill="white"/>
<path d="M13.2163 40.9746C13.2163 39.5939 14.3356 38.4746 15.7163 38.4746H30.7163C32.0971 38.4746 33.2163 39.5939 33.2163 40.9746C33.2163 42.3554 32.0971 43.4746 30.7163 43.4746H15.7163C14.3356 43.4746 13.2163 42.3554 13.2163 40.9746Z" fill="white"/>
</svg>
